# xmcd
#
# Track frame offsets:
# 183
# 23053
# 48435
# 65033
# 78608
# 91495
# 113718
# 130920
# 146870
# 165820
# 182445
# 193808
# 208378
# 225523
# 243435
# 257178
# 270478
# 286153
# 299788
# 310890
#
# Disc length: 4306 seconds
#
# Revision: 2
# Processed by: cddbd v1.4PL0 Copyright (c) Steve Scherf et al.
# Submitted via: Axialis_AX_CDPlayer 2.6
#
DISCID=2e10d014
DTITLE=Various Artist - 25 Everlasting Oldies vol 5
DYEAR=1900
DGENRE=
TTITLE0=I Really Don't Want To Know
TTITLE1=He'll Have To Go
TTITLE2=Patches
TTITLE3=Try To Remember
TTITLE4=Don't Let Me Cross Over
TTITLE5=There Goes My Everything
TTITLE6=I Went To Your Wedding
TTITLE7=Changing Partner
TTITLE8=Mr. Love
TTITLE9=The Last Waltz
TTITLE10=Adios Amigo
TTITLE11=Almost Persuaded
TTITLE12=Mother Of Mine
TTITLE13=Visions
TTITLE14=Girl On The Bus
TTITLE15=Hello Darling
TTITLE16=Tammy
TTITLE17=Distroit City
TTITLE18=When The Girls In Your Arms
TTITLE19=Tennesse Waltz
EXTD=
EXTT0=
EXTT1=
EXTT2=
EXTT3=
EXTT4=
EXTT5=
EXTT6=
EXTT7=
EXTT8=
EXTT9=
EXTT10=
EXTT11=
EXTT12=
EXTT13=
EXTT14=
EXTT15=
EXTT16=
EXTT17=
EXTT18=
EXTT19=
PLAYORDER=
